<svg xmlns="http://www.w3.org/2000/svg" viewBox="0 0 200 200"><path fill="#3C6EA5" d="M86.78 194.42L5.44 113.14c-7.25-7.26-7.25-19.16 0-26.42L86.78 5.44c7.26-7.25 19.18-7.25 26.44 0l81.34 81.28c7.25 7.26 7.25 19.16 0 26.42l-81.34 81.28c-7.26 7.44-19.18 7.44-26.44 0zm16.94-51.9c7.08 1.68 14.52-1.3 21.97-8.74 10.4-10.4 18.23-20.46 23.63-29.76l-4.66-4.65c-5.58 7.63-13.96 16.93-25.13 28.1-4.84 4.82-9.5 6.87-14.14 6.13s-10.98-5.2-19.17-13.2L111.9 94.7c5.22-5.2 8.02-10.04 8.4-14.5.36-4.47-1.5-8.93-5.78-13.2-3.9-3.92-7.45-6.7-10.8-8.57-3.35-1.86-6.33-2.97-8.93-3.35-2.62-.37-5.22.2-8.2 1.5-2.98 1.3-5.4 2.97-7.63 4.64-2.24 1.86-4.84 4.28-8 7.44-4.85 4.84-8.38 8.93-10.43 12.28C58.5 84.3 57.2 88.2 57.2 92.5c-.2 4.27 1.3 8.73 4.46 13.57S69.46 116.47 76 123c11.53 11.34 20.65 17.85 27.72 19.53zm-31.83-37.2c-2.05-2.6-3.36-4.83-4.3-7.25-.92-2.23-1.3-4.28-1.3-5.95s.38-3.54 1.5-5.58c1.12-2.05 2.42-3.9 3.72-5.4 1.3-1.48 3.35-3.72 5.96-6.32 3.35-3.35 6.14-5.95 8.2-7.44 2.04-1.5 4.27-2.42 6.7-2.8 2.4-.36 4.83.2 7.25 1.5 2.42 1.5 5.2 3.9 8.56 7.25 2.4 2.42 3.34 4.84 2.78 7.26-.56 2.4-2.23 5-5.2 7.98l-25.7 25.67c-3.53-3.35-6.14-6.32-8.2-8.93z"/></svg>